<svg width="250" height="250" viewBox="0 0 444 426" fill="none" xmlns="http://www.w3.org/2000/svg">
<path d="M348.617 77.4366C370.241 61.463 400.684 55.3394 424.505 67.8011C397.688 79.4445 375.854 100.198 362.866 126.39C357.894 136.509 353.417 148.282 343.158 152.958C336.775 155.868 329.241 155.307 322.631 152.957C316.02 150.607 310.14 146.615 304.342 142.665L302.603 142.456C312.922 117.631 326.994 93.4102 348.617 77.4366Z" fill="#F0F0F0"/>
<path d="M424.313 68.3317C402.072 69.0285 380.616 76.7156 362.992 90.3009C359.146 93.1582 355.775 96.6038 353.002 100.511C350.424 104.404 348.935 108.917 348.691 113.58C348.376 117.924 348.556 122.403 347.191 126.594C346.46 128.729 345.286 130.685 343.746 132.335C342.206 133.984 340.335 135.29 338.255 136.165C333.13 138.482 327.478 138.819 321.939 138.956C315.789 139.108 309.399 139.169 303.806 142.065C303.128 142.416 302.624 141.344 303.3 140.993C313.031 135.955 324.402 139.242 334.629 136.244C339.401 134.845 343.781 131.999 345.697 127.238C347.372 123.074 347.19 118.455 347.471 114.054C347.643 109.502 348.926 105.06 351.21 101.118C353.775 97.0827 357.008 93.513 360.771 90.562C369.136 83.7833 378.515 78.362 388.564 74.4967C400.009 70.0216 412.134 67.5373 424.417 67.1512C425.177 67.1276 425.068 68.3082 424.313 68.3317V68.3317Z" fill="white"/>
<path d="M368.409 85.5924C366.531 82.3262 365.876 78.4987 366.559 74.7936C367.243 71.0885 369.221 67.747 372.141 65.3659C372.733 64.8861 373.507 65.7842 372.913 66.2646C370.19 68.4769 368.348 71.5897 367.718 75.0412C367.089 78.4927 367.714 82.0555 369.481 85.0866C369.864 85.7458 368.79 86.2478 368.409 85.5924V85.5924Z" fill="white"/>
<path d="M348.561 111.357C355.978 113.43 363.905 112.631 370.759 109.12C371.438 108.772 371.943 109.843 371.265 110.191C364.125 113.832 355.875 114.646 348.161 112.472C347.425 112.264 347.829 111.15 348.561 111.357V111.357Z" fill="white"/>
<path d="M399.952 71.5917C400.416 73.0069 401.223 74.2849 402.302 75.3109C403.382 76.3369 404.699 77.0787 406.136 77.4699C406.873 77.6682 406.468 78.7822 405.736 78.5852C404.15 78.1457 402.697 77.3246 401.502 76.1936C400.307 75.0627 399.407 73.6564 398.881 72.0975C398.819 71.9547 398.814 71.7937 398.866 71.6473C398.919 71.5008 399.025 71.3798 399.164 71.3089C399.306 71.2426 399.469 71.2352 399.616 71.2881C399.764 71.3411 399.885 71.4502 399.952 71.5917H399.952Z" fill="white"/>
<path d="M442.92 157.154C424.742 144.32 402.982 137.54 380.732 137.776C375.941 137.742 371.174 138.464 366.608 139.914C362.205 141.47 358.3 144.177 355.297 147.753C352.431 151.031 349.878 154.717 346.264 157.241C344.395 158.506 342.28 159.361 340.058 159.751C337.835 160.141 335.555 160.056 333.367 159.503C327.88 158.267 323.164 155.133 318.659 151.908C313.657 148.327 308.519 144.528 302.31 143.473C301.557 143.345 301.8 142.185 302.551 142.313C313.354 144.149 320.454 153.619 330.425 157.383C335.077 159.139 340.287 159.503 344.684 156.855C348.528 154.54 351.164 150.742 354.038 147.397C356.916 143.866 360.615 141.093 364.812 139.32C369.289 137.642 374.02 136.738 378.801 136.648C389.562 136.272 400.314 137.59 410.665 140.554C422.497 143.871 433.674 149.188 443.714 156.275C444.335 156.713 443.537 157.591 442.92 157.155L442.92 157.154Z" fill="white"/>
<path d="M387.892 137.279C388.359 133.54 390.14 130.089 392.916 127.542C395.693 124.996 399.284 123.519 403.049 123.375C403.811 123.349 403.888 124.532 403.125 124.558C399.619 124.685 396.273 126.061 393.693 128.438C391.112 130.815 389.466 134.036 389.052 137.52C388.961 138.277 387.801 138.031 387.892 137.279H387.892Z" fill="white"/>
<path d="M356.532 145.9C361.206 152.021 368.016 156.155 375.603 157.479C376.355 157.609 376.113 158.769 375.362 158.639C367.469 157.247 360.391 152.93 355.541 146.549C355.079 145.941 356.072 145.294 356.532 145.9V145.9Z" fill="white"/>
<path d="M421.507 145.091C421.025 146.5 420.9 148.006 421.144 149.475C421.388 150.944 421.993 152.33 422.905 153.507C423.374 154.109 422.38 154.755 421.914 154.157C420.913 152.851 420.246 151.32 419.973 149.698C419.7 148.076 419.828 146.411 420.347 144.85C420.383 144.698 420.476 144.567 420.606 144.481C420.736 144.396 420.894 144.363 421.047 144.39C421.201 144.423 421.335 144.515 421.421 144.646C421.507 144.777 421.538 144.937 421.507 145.091V145.091Z" fill="white"/>
<path d="M342.912 101.201H340.572V37.0998C340.572 32.2278 339.612 27.4035 337.748 22.9023C335.883 18.4012 333.151 14.3113 329.706 10.8663C326.261 7.42125 322.171 4.68851 317.669 2.82407C313.168 0.959625 308.344 2.62652e-06 303.472 0H167.666C162.794 -1.05057e-05 157.969 0.959592 153.468 2.82402C148.967 4.68845 144.877 7.42119 141.432 10.8662C137.987 14.3112 135.254 18.4011 133.39 22.9022C131.526 27.4034 130.566 32.2277 130.566 37.0997V388.762C130.566 398.601 134.475 408.038 141.432 414.995C148.39 421.953 157.826 425.861 167.666 425.861H303.472C313.311 425.861 322.748 421.953 329.705 414.995C336.663 408.038 340.572 398.601 340.572 388.762V146.829H342.912V101.201Z" fill="#1F2833"/>
<path d="M304.969 9.65213H287.242C288.057 11.6508 288.368 13.8193 288.148 15.9666C287.928 18.1138 287.183 20.174 285.979 21.9655C284.775 23.7571 283.148 25.225 281.243 26.2401C279.339 27.2552 277.213 27.7861 275.055 27.7863H197.253C195.094 27.7862 192.969 27.2552 191.064 26.2401C189.159 25.2251 187.533 23.7571 186.329 21.9655C185.125 20.174 184.38 18.1138 184.16 15.9666C183.939 13.8193 184.251 11.6508 185.066 9.6521H168.509C161.161 9.6521 154.114 12.5711 148.918 17.7669C143.722 22.9627 140.803 30.0098 140.803 37.3578V388.504C140.803 392.142 141.52 395.745 142.912 399.106C144.304 402.468 146.345 405.522 148.918 408.095C151.49 410.667 154.545 412.708 157.906 414.1C161.268 415.493 164.87 416.209 168.509 416.209H304.969C308.607 416.209 312.21 415.493 315.571 414.1C318.933 412.708 321.987 410.667 324.56 408.095C327.132 405.522 329.173 402.468 330.566 399.106C331.958 395.745 332.675 392.142 332.675 388.504V388.504V37.3578C332.675 30.0098 329.756 22.9627 324.56 17.7669C319.364 12.5711 312.317 9.65212 304.969 9.65213Z" fill="white"/>
<path d="M239.361 303.408C229.312 303.417 219.36 301.445 210.075 297.604C200.789 293.763 192.352 288.128 185.246 281.023C178.141 273.917 172.506 265.48 168.665 256.194C164.824 246.909 162.852 236.957 162.861 226.908C162.847 212.798 166.741 198.959 174.112 186.927C181.483 174.894 192.042 165.139 204.619 158.742C213.736 154.104 223.689 151.337 233.892 150.605C244.094 149.872 254.34 151.189 264.026 154.478C281.179 160.324 295.701 172.068 305.004 187.62C314.308 203.172 317.789 221.521 314.828 239.399C311.867 257.278 302.656 273.525 288.836 285.247C275.016 296.969 257.483 303.405 239.361 303.408L239.361 303.408ZM239.361 153.408C227.755 153.374 216.31 156.119 205.983 161.414C196.956 166.013 188.977 172.428 182.548 180.258C176.118 188.087 171.376 197.161 168.62 206.91C165.864 216.659 165.153 226.873 166.532 236.909C167.911 246.946 171.349 256.59 176.632 265.234C181.915 273.879 188.929 281.338 197.231 287.144C205.534 292.949 214.947 296.975 224.88 298.97C234.813 300.964 245.051 300.883 254.951 298.733C264.852 296.583 274.2 292.409 282.411 286.473C286.38 283.609 290.051 280.352 293.367 276.752C303.066 266.258 309.495 253.163 311.866 239.071C314.236 224.979 312.446 210.502 306.715 197.412C300.983 184.322 291.559 173.188 279.596 165.372C267.633 157.556 253.651 153.398 239.361 153.408V153.408Z" fill="#1F2833"/>
<path d="M73.5966 159.017C75.6965 159.28 77.713 160 79.5043 161.127C81.2955 162.254 82.8179 163.76 83.9642 165.539C85.1104 167.318 85.8527 169.327 86.1387 171.424C86.4247 173.521 86.2475 175.655 85.6195 177.676L111.037 198.847L101.938 217.431L66.4639 187.029C63.1388 185.749 60.3987 183.293 58.7629 180.128C57.127 176.963 56.7091 173.307 57.5883 169.854C58.4675 166.402 60.5827 163.391 63.5332 161.394C66.4836 159.396 70.0643 158.55 73.5967 159.017L73.5966 159.017Z" fill="#FFB6B6"/>
<path d="M310.981 247.308C310.471 241.828 308.364 231.978 306.576 228.335C301.079 213.947 265.561 202.122 260.791 200.598L259.581 187.148L210.231 181.838L203.971 199.038L186.271 205.678C185.069 206.126 183.982 206.834 183.086 207.753C182.19 208.671 181.509 209.775 181.091 210.988V210.988L165.211 215.578L149.541 220.108L95.101 181.748L92.5307 183.428L75.351 194.638L72.7006 196.368L143.151 259.928L169.321 253.788L189.001 249.158L190.681 255.978L186.331 279.938C198.933 292.545 215.615 300.249 233.384 301.669C251.153 303.09 268.846 298.133 283.291 287.688L294.471 277.768C302.263 269.343 308.014 259.239 311.281 248.238L310.981 247.308Z" fill="#45a29e
"/>
<path d="M250.412 170.838C269.041 164.67 279.143 144.568 272.975 125.938C266.807 107.309 246.705 97.2067 228.075 103.375C209.446 109.543 199.344 129.645 205.512 148.275C211.68 166.904 231.782 177.006 250.412 170.838Z" fill="#FFB6B6"/>
<path d="M211.177 96.5986C214.631 91.6655 219.815 88.2125 225.699 86.9258C231.516 85.7294 237.57 86.8399 242.584 90.023C248.036 87.8267 253.914 86.3697 259.689 87.1104C265.465 87.8512 271.125 91.0771 273.797 96.3917C274.359 97.7684 275.041 99.0931 275.836 100.35C278.19 103.492 282.565 103.899 286.429 104.05C284.476 105.189 282.522 106.329 280.568 107.468C282.515 108.375 284.462 109.283 286.41 110.19C283.76 111.202 281.109 112.214 278.459 113.226C284.628 118.648 286.12 128.298 283.784 136.388C281.573 144.048 276.503 150.496 270.841 156.017C269.737 151.898 270.952 147.432 271.761 143.167C272.615 138.661 272.752 133.392 269.597 130.211C267.469 128.065 264.347 127.416 261.403 126.896C246.554 124.27 231.568 122.49 216.517 121.566C214.502 121.288 212.45 121.497 210.534 122.177C206.871 123.805 205.399 128.274 204.338 132.238C203.829 125.281 204.236 118.287 205.546 111.436C206.55 106.193 208.132 100.944 211.177 96.5986Z" fill="#2F2E41"/>
<path d="M257.361 339.45H215.361C213.902 339.45 212.503 338.871 211.472 337.84C210.44 336.808 209.861 335.409 209.861 333.95C209.861 332.492 210.44 331.093 211.472 330.061C212.503 329.03 213.902 328.45 215.361 328.45H257.361C258.819 328.45 260.218 329.03 261.25 330.061C262.281 331.093 262.861 332.492 262.861 333.95C262.861 335.409 262.281 336.808 261.25 337.84C260.218 338.871 258.819 339.45 257.361 339.45V339.45Z" fill="#66fcf1"/>
<path d="M119.542 45.1252H4.01782C2.95326 45.1236 1.93286 44.6995 1.18069 43.9461C0.428531 43.1928 0.006073 42.1717 0.006073 41.1072C0.006073 40.0426 0.428531 39.0216 1.18069 38.2682C1.93286 37.5149 2.95326 37.0908 4.01782 37.0891H119.542C120.608 37.0891 121.63 37.5124 122.384 38.266C123.137 39.0195 123.561 40.0415 123.561 41.1072C123.561 42.1728 123.137 43.1948 122.384 43.9484C121.63 44.7019 120.608 45.1252 119.542 45.1252V45.1252Z" fill="#66fcf1"/>
<path d="M186.243 70.7883H4.01782C2.95223 70.7883 1.93028 70.365 1.17679 69.6115C0.4233 68.8581 0 67.8361 0 66.7705C0 65.7049 0.4233 64.683 1.17679 63.9295C1.93028 63.176 2.95223 62.7527 4.01782 62.7527H186.243C187.308 62.7527 188.33 63.176 189.084 63.9295C189.837 64.683 190.26 65.7049 190.26 66.7705C190.26 67.8361 189.837 68.8581 189.084 69.6115C188.33 70.365 187.308 70.7883 186.243 70.7883Z" fill="#66fcf1"/>
<path d="M151.225 94.9656H4.01785C2.95226 94.9656 1.93031 94.5423 1.17682 93.7888C0.423331 93.0353 3.05176e-05 92.0133 3.05176e-05 90.9478C3.05176e-05 89.8822 0.423331 88.8602 1.17682 88.1067C1.93031 87.3532 2.95226 86.9299 4.01785 86.9299H151.225C152.29 86.9299 153.312 87.3532 154.066 88.1067C154.819 88.8602 155.243 89.8822 155.243 90.9478C155.243 92.0133 154.819 93.0353 154.066 93.7888C153.312 94.5423 152.29 94.9656 151.225 94.9656V94.9656Z" fill="#1F2833"/>
<path d="M87.0269 119.054H4.01785C2.95226 119.054 1.93031 118.631 1.17682 117.877C0.423331 117.124 3.05176e-05 116.102 3.05176e-05 115.036C3.05176e-05 113.971 0.423331 112.949 1.17682 112.195C1.93031 111.442 2.95226 111.018 4.01785 111.018H87.0269C88.0924 111.018 89.1144 111.442 89.8679 112.195C90.6213 112.949 91.0446 113.971 91.0446 115.036C91.0446 116.102 90.6213 117.124 89.8679 117.877C89.1144 118.631 88.0924 119.054 87.0269 119.054V119.054Z" fill="#1F2833"/>
<path d="M132.883 143.14H4.01779C2.9533 143.139 1.933 142.715 1.18088 141.961C0.428759 141.208 0.00631714 140.187 0.00631714 139.123C0.00631714 138.058 0.428759 137.037 1.18088 136.284C1.933 135.53 2.9533 135.106 4.01779 135.105H132.883C133.947 135.106 134.968 135.53 135.72 136.284C136.472 137.037 136.894 138.058 136.894 139.123C136.894 140.187 136.472 141.208 135.72 141.961C134.968 142.715 133.947 143.139 132.883 143.14V143.14Z" fill="#1F2833"/>
</svg>
