<svg width="358" height="480" viewBox="0 0 358 480" fill="none" xmlns="http://www.w3.org/2000/svg">
<path d="M357.162 114.1H354.527V41.9142C354.527 36.4277 353.446 30.9949 351.347 25.926C349.247 20.8572 346.17 16.2515 342.291 12.372C338.411 8.4924 333.805 5.41499 328.735 3.31539C323.667 1.21579 318.234 0.135135 312.748 0.135132H159.813C154.327 0.13512 148.893 1.21575 143.824 3.31533C138.756 5.41492 134.15 8.49233 130.27 12.3718C126.391 16.2513 123.313 20.8571 121.214 25.9259C119.115 30.9948 118.034 36.4276 118.034 41.9141V437.93C118.034 449.01 122.436 459.637 130.27 467.472C138.106 475.307 148.732 479.708 159.813 479.708H312.748C323.828 479.708 334.455 475.307 342.289 467.472C350.125 459.637 354.527 449.01 354.527 437.93V165.483H357.162V114.1Z" fill="#1F2833"/>
<path d="M314.434 11.0046H294.471C295.389 13.2554 295.739 15.6974 295.491 18.1155C295.243 20.5336 294.404 22.8536 293.048 24.8711C291.693 26.8886 289.86 28.5417 287.715 29.6848C285.571 30.8279 283.177 31.4258 280.747 31.426H193.132C190.7 31.4259 188.307 30.8279 186.162 29.6848C184.017 28.5418 182.186 26.8886 180.83 24.8711C179.474 22.8536 178.635 20.5336 178.387 18.1155C178.139 15.6974 178.49 13.2554 179.408 11.0046H160.762C152.488 11.0046 144.552 14.2918 138.7 20.1429C132.849 25.994 129.562 33.9299 129.562 42.2047V437.64C129.562 441.736 130.369 445.794 131.937 449.579C133.504 453.365 135.803 456.804 138.7 459.702C141.597 462.598 145.037 464.896 148.822 466.464C152.608 468.033 156.664 468.839 160.762 468.839H314.434C318.53 468.839 322.588 468.033 326.373 466.464C330.159 464.896 333.598 462.598 336.495 459.702C339.392 456.804 341.69 453.365 343.259 449.579C344.827 445.794 345.634 441.736 345.634 437.64V42.2047C345.634 33.9299 342.347 25.994 336.495 20.1429C330.644 14.2918 322.708 11.0046 314.434 11.0046Z" fill="white"/>
<path d="M240.551 341.811C229.234 341.821 218.027 339.6 207.571 335.275C197.114 330.949 187.613 324.604 179.61 316.602C171.609 308.6 165.264 299.099 160.938 288.642C156.613 278.186 154.392 266.979 154.402 255.662C154.386 239.773 158.771 224.188 167.072 210.639C175.373 197.088 187.264 186.102 201.427 178.899C211.694 173.676 222.902 170.56 234.392 169.735C245.881 168.91 257.419 170.393 268.327 174.097C287.643 180.68 303.997 193.905 314.473 211.419C324.95 228.932 328.87 249.596 325.536 269.729C322.202 289.863 311.829 308.159 296.266 321.359C280.703 334.56 260.958 341.807 240.551 341.811ZM240.551 172.892C227.481 172.854 214.592 175.945 202.963 181.908C192.797 187.087 183.812 194.311 176.572 203.128C169.331 211.945 163.991 222.163 160.887 233.142C157.784 244.12 156.983 255.623 158.536 266.925C160.089 278.227 163.961 289.088 169.91 298.822C175.859 308.557 183.758 316.957 193.107 323.496C202.457 330.033 213.057 334.566 224.243 336.813C235.429 339.059 246.958 338.967 258.107 336.546C269.257 334.125 279.784 329.425 289.03 322.74C293.5 319.515 297.634 315.847 301.368 311.793C312.291 299.975 319.53 285.229 322.2 269.359C324.869 253.49 322.854 237.187 316.4 222.446C309.945 207.705 299.332 195.167 285.86 186.365C272.389 177.563 256.643 172.881 240.551 172.892Z" fill="#1F2833"/>
<path d="M53.8791 179.208C56.2438 179.505 58.5146 180.315 60.5319 181.584C62.549 182.854 64.2634 184.55 65.5543 186.553C66.845 188.556 67.681 190.819 68.003 193.18C68.3251 195.542 68.1256 197.945 67.4184 200.221L96.0417 224.062L85.795 244.99L45.8467 210.753C42.1022 209.312 39.0165 206.546 37.1744 202.982C35.3322 199.418 34.8616 195.301 35.8517 191.412C36.8418 187.525 39.2238 184.134 42.5464 181.885C45.8689 179.635 49.9012 178.682 53.8792 179.208H53.8791Z" fill="#FFB6B6"/>
<path d="M321.204 278.635C320.63 272.464 318.257 261.372 316.243 257.269C310.053 241.066 270.055 227.75 264.684 226.034L263.321 210.887L207.747 204.908L200.697 224.277L180.765 231.754C179.411 232.259 178.187 233.056 177.178 234.091C176.169 235.125 175.402 236.368 174.931 237.734L157.048 242.903L139.402 248.004L78.0957 204.806L75.2012 206.698L55.8547 219.322L52.87 221.27L132.206 292.847L161.677 285.932L183.839 280.718L185.731 288.399L180.832 315.381C195.024 329.578 213.81 338.253 233.82 339.852C253.83 341.453 273.755 335.87 290.021 324.108L302.612 312.937C311.386 303.449 317.863 292.071 321.542 279.682L321.204 278.635Z" fill="#45A29E"/>
<path d="M252.995 192.52C273.974 185.574 285.35 162.937 278.404 141.957C271.458 120.979 248.821 109.602 227.841 116.548C206.863 123.494 195.486 146.132 202.432 167.111C209.378 188.09 232.016 199.466 252.995 192.52Z" fill="#FFB6B6"/>
<path d="M208.812 108.917C212.702 103.362 218.539 99.4735 225.166 98.0245C231.716 96.6772 238.534 97.9278 244.18 101.512C250.32 99.0391 256.939 97.3983 263.443 98.2324C269.947 99.0666 276.321 102.699 279.33 108.684C279.963 110.235 280.731 111.726 281.626 113.142C284.277 116.68 289.204 117.139 293.555 117.309C291.356 118.591 289.155 119.875 286.955 121.158C289.148 122.179 291.34 123.202 293.534 124.223C290.55 125.363 287.564 126.502 284.58 127.642C291.527 133.748 293.207 144.615 290.577 153.725C288.087 162.351 282.377 169.613 276.001 175.83C274.758 171.191 276.126 166.162 277.037 161.359C277.999 156.285 278.153 150.351 274.6 146.769C272.204 144.352 268.688 143.622 265.373 143.036C248.651 140.079 231.775 138.074 214.825 137.034C212.556 136.721 210.245 136.956 208.088 137.722C203.963 139.555 202.305 144.588 201.11 149.052C200.537 141.217 200.995 133.341 202.471 125.626C203.601 119.722 205.383 113.811 208.812 108.917Z" fill="#2F2E41"/>
<path d="M260.821 382.399H213.524C211.881 382.399 210.305 381.747 209.144 380.586C207.982 379.423 207.33 377.848 207.33 376.205C207.33 374.563 207.982 372.988 209.144 371.825C210.305 370.664 211.881 370.011 213.524 370.011H260.821C262.463 370.011 264.038 370.664 265.2 371.825C266.361 372.988 267.015 374.563 267.015 376.205C267.015 377.848 266.361 379.423 265.2 380.586C264.038 381.747 262.463 382.399 260.821 382.399Z" fill="#66FCF1"/>
<path d="M106.422 51H3.57163C2.62386 50.9982 1.7154 50.5232 1.04575 49.6795C0.376111 48.8358 0 47.6922 0 46.5001C0 45.3078 0.376111 44.1643 1.04575 43.3205C1.7154 42.4769 2.62386 42.0019 3.57163 42H106.422C107.371 42 108.281 42.4741 108.952 43.3181C109.623 44.1619 110 45.3065 110 46.5001C110 47.6935 109.623 48.8381 108.952 49.682C108.281 50.5259 107.371 51 106.422 51Z" fill="#66FCF1"/>
<path d="M181.094 80H3.90674C2.87061 80 1.87691 79.5259 1.14426 78.682C0.411597 77.8381 0 76.6935 0 75.5C0 74.3065 0.411597 73.162 1.14426 72.318C1.87691 71.4741 2.87061 71 3.90674 71H181.094C182.13 71 183.123 71.4741 183.857 72.318C184.589 73.162 185 74.3065 185 75.5C185 76.6935 184.589 77.8381 183.857 78.682C183.123 79.5259 182.13 80 181.094 80Z" fill="#66FCF1"/>
<path d="M142.221 107H3.7786C2.77646 107 1.81535 106.526 1.10672 105.682C0.398098 104.838 0 103.693 0 102.5C0 101.307 0.398098 100.162 1.10672 99.318C1.81535 98.4741 2.77646 98 3.7786 98H142.221C143.223 98 144.184 98.4741 144.893 99.318C145.601 100.162 146 101.307 146 102.5C146 103.693 145.601 104.838 144.893 105.682C144.184 106.526 143.223 107 142.221 107Z" fill="#1F2833"/>
<path d="M70.7345 134H3.26564C2.39954 134 1.56891 133.526 0.956481 132.682C0.344054 131.838 0 130.694 0 129.5C0 128.307 0.344054 127.163 0.956481 126.318C1.56891 125.475 2.39954 125 3.26564 125H70.7345C71.6005 125 72.4312 125.475 73.0436 126.318C73.6559 127.163 74 128.307 74 129.5C74 130.694 73.6559 131.838 73.0436 132.682C72.4312 133.526 71.6005 134 70.7345 134Z" fill="#1F2833"/>
<path d="M121.337 161H3.66311C2.69106 160.999 1.75936 160.524 1.07256 159.679C0.385756 158.836 0 157.692 0 156.501C0 155.308 0.385756 154.164 1.07256 153.321C1.75936 152.476 2.69106 152.001 3.66311 152H121.337C122.309 152.001 123.241 152.476 123.928 153.321C124.615 154.164 125 155.308 125 156.501C125 157.692 124.615 158.836 123.928 159.679C123.241 160.524 122.309 160.999 121.337 161Z" fill="#1F2833"/>
</svg>
